<?xml version="1.0" standalone="no"?>
<!DOCTYPE svg PUBLIC "-//W3C//DTD SVG 20010904//EN"
 "http://www.w3.org/TR/2001/REC-SVG-20010904/DTD/svg10.dtd">
<svg version="1.0" xmlns="http://www.w3.org/2000/svg"
 width="1318.000000pt" height="1368.000000pt" viewBox="0 0 1318.000000 1368.000000"
 preserveAspectRatio="xMidYMid meet">
<metadata>
Created by potrace 1.16, written by Peter Selinger 2001-2019
</metadata>
<g transform="translate(0.000000,1368.000000) scale(0.100000,-0.100000)"
fill="#000000" stroke="none">
<path d="M6270 13660 c-1766 -127 -3230 -851 -4385 -2165 -688 -783 -1274
-1829 -1568 -2795 -327 -1076 -396 -2076 -211 -3090 64 -350 208 -837 348
-1175 86 -206 281 -601 386 -780 401 -682 950 -1332 1510 -1787 115 -93 115
-93 89 -48 -352 604 -678 1440 -849 2178 -143 618 -200 1105 -200 1700 0 408
21 677 81 1042 91 550 235 1025 443 1455 366 755 851 1300 1393 1566 302 148
662 219 883 174 292 -59 664 -241 952 -465 115 -90 338 -314 438 -440 463
-583 741 -1374 834 -2368 52 -549 39 -1290 -30 -1772 -110 -769 -378 -1656
-741 -2446 l-56 -124 490 -1152 c448 -1053 492 -1153 513 -1153 21 0 65 100
513 1152 l489 1152 -87 193 c-362 796 -632 1731 -729 2528 -51 418 -55 1135
-11 1620 93 994 371 1786 835 2370 100 126 323 350 438 440 287 224 661 406
952 465 269 55 705 -56 1050 -265 293 -178 600 -478 851 -831 234 -330 479
-818 602 -1205 155 -481 249 -972 287 -1499 13 -182 13 -691 0 -887 -52 -761
-220 -1521 -507 -2288 -150 -401 -347 -823 -532 -1140 -26 -45 -26 -45 89 48
560 455 1109 1105 1510 1787 105 179 300 574 386 780 140 338 284 825 348
1175 176 967 120 1944 -169 2950 -359 1248 -1165 2563 -2100 3430 -1061 983
-2263 1519 -3715 1656 -199 18 -648 26 -820 14z"/>
</g>
</svg>
